# xmcd
#
# Track frame offsets: 
#        150
#        9913
#        19322
#        29912
#        38828
#        48195
#        60420
#        67374
#        78569
#        89671
#        102288
#        111891
#        122935
#        139302
#        149360
#        163801
#        172739
#        183360
#        194340
#
# Disc length: 2791 seconds
#
# Revision: 5
# Processed by: cddbd v1.5.2PL0 Copyright (c) Steve Scherf et al.
# Submitted via: ExactAudioCopy v0.95b4
#
DISCID=140ae513
DTITLE=Blasters - American Music
DYEAR=1997
DGENRE=Rock
TTITLE0=American Music
TTITLE1=Real Rock Drive
TTITLE2=Barefoot Rock
TTITLE3=I Don't Want To
TTITLE4=Marie Marie
TTITLE5=I Wish You Could
TTITLE6=She Ain't Got The Beat
TTITLE7=Flat Top Joint
TTITLE8=Crazy Baby
TTITLE9=Never No More Blues
TTITLE10=Buzz Buzz Buzz
TTITLE11=She's Gone Away
TTITLE12=Barn Burning
TTITLE13=21 Days In Jail
TTITLE14=Love 24 Hours A Day
TTITLE15=I Fell In Love
TTITLE16=So Glad
TTITLE17=Ashamed Of Myself
TTITLE18=Lone Wolf
EXTD=
EXTT0=
EXTT1=
EXTT2=
EXTT3=
EXTT4=
EXTT5=
EXTT6=
EXTT7=
EXTT8=
EXTT9=
EXTT10=
EXTT11=
EXTT12=
EXTT13=
EXTT14=
EXTT15=
EXTT16=
EXTT17=
EXTT18=
PLAYORDER=
